<svg width="170" height="170" viewBox="0 0 170 170" fill="none" xmlns="http://www.w3.org/2000/svg">
<circle cx="85" cy="85" r="85" fill="#D9D9D9"/>
<path d="M160 85C160 43.675 126.325 10 85 10C43.675 10 10 43.675 10 85C10 106.75 19.375 126.325 34.225 140.05C34.225 140.125 34.225 140.125 34.15 140.2C34.9 140.95 35.8 141.55 36.55 142.225C37 142.6 37.375 142.975 37.825 143.275C39.175 144.4 40.675 145.45 42.1 146.5C42.625 146.875 43.075 147.175 43.6 147.55C45.025 148.525 46.525 149.425 48.1 150.25C48.625 150.55 49.225 150.925 49.75 151.225C51.25 152.05 52.825 152.8 54.475 153.475C55.075 153.775 55.675 154.075 56.275 154.3C57.925 154.975 59.575 155.575 61.225 156.1C61.825 156.325 62.425 156.55 63.025 156.7C64.825 157.225 66.625 157.675 68.425 158.125C68.95 158.275 69.475 158.425 70.075 158.5C72.175 158.95 74.275 159.25 76.45 159.475C76.75 159.475 77.05 159.55 77.35 159.625C79.9 159.85 82.45 160 85 160C87.55 160 90.1 159.85 92.575 159.625C92.875 159.625 93.175 159.55 93.475 159.475C95.65 159.25 97.75 158.95 99.85 158.5C100.375 158.425 100.9 158.2 101.5 158.125C103.3 157.675 105.175 157.3 106.9 156.7C107.5 156.475 108.1 156.25 108.7 156.1C110.35 155.5 112.075 154.975 113.65 154.3C114.25 154.075 114.85 153.775 115.45 153.475C117.025 152.8 118.6 152.05 120.175 151.225C120.775 150.925 121.3 150.55 121.825 150.25C123.325 149.35 124.825 148.525 126.325 147.55C126.85 147.25 127.3 146.875 127.825 146.5C129.325 145.45 130.75 144.4 132.1 143.275C132.55 142.9 132.925 142.525 133.375 142.225C134.2 141.55 135.025 140.875 135.775 140.2C135.775 140.125 135.775 140.125 135.7 140.05C150.625 126.325 160 106.75 160 85ZM122.05 122.275C101.725 108.625 68.425 108.625 47.95 122.275C44.65 124.45 41.95 127 39.7 129.775C28.3 118.225 21.25 102.4 21.25 85C21.25 49.825 49.825 21.25 85 21.25C120.175 21.25 148.75 49.825 148.75 85C148.75 102.4 141.7 118.225 130.3 129.775C128.125 127 125.35 124.45 122.05 122.275Z" fill="white"/>
<path d="M85.0001 46.9727C69.4751 46.9727 56.8751 59.5727 56.8751 75.0978C56.8751 90.3228 68.8001 102.698 84.6251 103.148H85.3001H85.8251H85.9751C101.125 102.623 113.05 90.3228 113.125 75.0978C113.125 59.5727 100.525 46.9727 85.0001 46.9727Z" fill="white"/>
<circle cx="132" cy="139" r="14.5" fill="#D9D9D9" stroke="#959292"/>
<path d="M131.2 135.375L134.7 129.375C136.217 129.775 137.563 130.508 138.738 131.575C139.913 132.642 140.767 133.908 141.3 135.375H131.2ZM128.425 137.875L125 131.875C125.9 130.992 126.946 130.292 128.138 129.775C129.33 129.258 130.617 129 132 129C132.217 129 132.467 129.013 132.75 129.038C133.033 129.063 133.292 129.092 133.525 129.125L128.425 137.875ZM122.325 141.5C122.225 141.1 122.146 140.692 122.087 140.275C122.028 139.858 121.999 139.433 122 139C122 137.817 122.192 136.7 122.575 135.65C122.958 134.6 123.5 133.642 124.2 132.775L129.25 141.5H122.325ZM129.325 148.625C127.808 148.225 126.458 147.492 125.275 146.425C124.092 145.358 123.233 144.092 122.7 142.625H132.775L129.325 148.625ZM132 149C131.75 149 131.496 148.983 131.237 148.95C130.978 148.917 130.733 148.883 130.5 148.85L135.575 140.125L139 146.125C138.1 147.008 137.054 147.708 135.862 148.225C134.67 148.742 133.383 149 132 149ZM139.8 145.225L134.75 136.5H141.675C141.775 136.9 141.854 137.308 141.913 137.725C141.972 138.142 142.001 138.567 142 139C142 140.167 141.796 141.283 141.387 142.35C140.978 143.417 140.449 144.375 139.8 145.225Z" fill="#EB583E"/>
</svg>
