<svg width="20" height="20" viewBox="0 0 20 20" fill="none" xmlns="http://www.w3.org/2000/svg">
<path d="M6 2C5.46957 2 4.96086 2.21071 4.58579 2.58579C4.21071 2.96086 4 3.46957 4 4V16C4 16.5304 4.21071 17.0391 4.58579 17.4142C4.96086 17.7893 5.46957 18 6 18H14C14.5304 18 15.0391 17.7893 15.4142 17.4142C15.7893 17.0391 16 16.5304 16 16V4C16 3.46957 15.7893 2.96086 15.4142 2.58579C15.0391 2.21071 14.5304 2 14 2H11V8.5C11 8.59286 10.9741 8.68388 10.9253 8.76287C10.8765 8.84185 10.8067 8.90569 10.7236 8.94721C10.6406 8.98874 10.5476 9.00632 10.4551 8.99798C10.3626 8.98964 10.2743 8.95571 10.2 8.9L8.5 7.625L6.8 8.9C6.72572 8.95571 6.63738 8.98964 6.5449 8.99798C6.45242 9.00632 6.35945 8.98874 6.27639 8.94721C6.19334 8.90569 6.12349 8.84185 6.07467 8.76287C6.02586 8.68388 6 8.59286 6 8.5V2ZM10 2H7V7.5L8.2 6.6C8.28655 6.53509 8.39181 6.5 8.5 6.5C8.60819 6.5 8.71345 6.53509 8.8 6.6L10 7.5V2Z" fill="#EB583E"/>
</svg>
