<svg width="22" height="22" viewBox="0 0 22 22" fill="none" xmlns="http://www.w3.org/2000/svg">
<path d="M11 0.767442C5.34856 0.767442 0.767442 5.34856 0.767442 11C0.767442 16.6514 5.34856 21.2326 11 21.2326C16.6514 21.2326 21.2326 16.6514 21.2326 11C21.2326 5.34856 16.6514 0.767442 11 0.767442Z" stroke="#EB583E" stroke-width="1.5" stroke-linecap="round" stroke-linejoin="round"/>
<path d="M3.09125 17.4936C3.09125 17.4936 5.37209 14.5814 11 14.5814C16.6279 14.5814 18.9098 17.4936 18.9098 17.4936M11 11C11.8141 11 12.595 10.6766 13.1706 10.1009C13.7463 9.52519 14.0698 8.74439 14.0698 7.93023C14.0698 7.11608 13.7463 6.33527 13.1706 5.75958C12.595 5.18389 11.8141 4.86047 11 4.86047C10.1858 4.86047 9.40504 5.18389 8.82934 5.75958C8.25365 6.33527 7.93023 7.11608 7.93023 7.93023C7.93023 8.74439 8.25365 9.52519 8.82934 10.1009C9.40504 10.6766 10.1858 11 11 11Z" stroke="#EB583E" stroke-width="1.5" stroke-linecap="round" stroke-linejoin="round"/>
</svg>
