<svg width="15" height="15" viewBox="0 0 15 15" fill="none" xmlns="http://www.w3.org/2000/svg">
<path d="M0 7.49999C0 8.98335 0.439867 10.4334 1.26398 11.6668C2.08809 12.9001 3.25943 13.8614 4.62987 14.4291C6.00031 14.9967 7.50831 15.1453 8.96317 14.8559C10.418 14.5665 11.7544 13.8522 12.8033 12.8033C13.8522 11.7544 14.5665 10.418 14.8559 8.96317C15.1453 7.50831 14.9967 6.00031 14.4291 4.62987C13.8614 3.25943 12.9001 2.08809 11.6668 1.26398C10.4334 0.439867 8.98335 0 7.49999 0C5.51087 0 3.60322 0.790175 2.1967 2.1967C0.790175 3.60322 0 5.51087 0 7.49999ZM3.21428 6.96428H9.7232L6.73392 3.96053L7.49999 3.21428L11.7857 7.49999L7.49999 11.7857L6.73392 11.0212L9.7232 8.03571H3.21428V6.96428Z" fill="#EB583E"/>
</svg>
