<svg width="138" height="138" viewBox="0 0 138 138" fill="none" xmlns="http://www.w3.org/2000/svg">
<path d="M134.896 60.3082L125.514 49.4089C123.721 47.3394 122.272 43.4764 122.272 40.7171V28.99C122.272 21.6778 116.271 15.6763 108.958 15.6763H97.2314C94.5411 15.6763 90.6091 14.2277 88.5396 12.4341L77.6403 3.05249C72.8805 -1.01749 65.0855 -1.01749 60.2567 3.05249L49.4261 12.5031C47.3566 14.2277 43.4246 15.6763 40.7343 15.6763H28.8003C21.4881 15.6763 15.4866 21.6778 15.4866 28.99V40.786C15.4866 43.4764 14.038 47.3394 12.3134 49.4089L3.00075 60.3772C-1.00025 65.137 -1.00025 72.8631 3.00075 77.6229L12.3134 88.5911C14.038 90.6606 15.4866 94.5237 15.4866 97.214V109.01C15.4866 116.322 21.4881 122.324 28.8003 122.324H40.7343C43.4246 122.324 47.3566 123.772 49.4261 125.566L60.3257 134.948C65.0855 139.017 72.8805 139.017 77.7093 134.948L88.6086 125.566C90.6781 123.772 94.5411 122.324 97.3004 122.324H109.027C116.34 122.324 122.341 116.322 122.341 109.01V97.283C122.341 94.5926 123.79 90.6606 125.583 88.5911L134.965 77.6919C138.966 72.9321 138.966 65.068 134.896 60.3082ZM97.6453 55.9623L64.3267 89.281C63.3609 90.2467 62.0502 90.7986 60.6706 90.7986C59.2909 90.7986 57.9803 90.2467 57.0145 89.281L40.3204 72.5871C38.3199 70.5866 38.3199 67.2755 40.3204 65.275C42.3209 63.2745 45.6321 63.2745 47.6326 65.275L60.6706 78.3127L90.3331 48.6501C92.3336 46.6496 95.6448 46.6496 97.6453 48.6501C99.6458 50.6506 99.6458 53.9617 97.6453 55.9623Z" fill="#EB583E"/>
</svg>
