<svg width="20" height="16" viewBox="0 0 20 16" fill="none" xmlns="http://www.w3.org/2000/svg">
<path d="M0 2.28571H20C20 1.025 19.0035 0 17.7778 0H2.22222C0.996528 0 0 1.025 0 2.28571ZM0 3.42857V13.7143C0 14.975 0.996528 16 2.22222 16H17.7778C19.0035 16 20 14.975 20 13.7143V3.42857H0ZM2.22222 13.3321C2.22222 12.2786 3.05208 11.4286 4.07292 11.4286H8.14931C9.17361 11.4286 10 12.2821 10 13.3321C10 13.5429 9.83333 13.7143 9.62847 13.7143H2.59375C2.38889 13.7143 2.22222 13.5429 2.22222 13.3321ZM6.11111 5.71429C6.70048 5.71429 7.26571 5.9551 7.68246 6.38376C8.09921 6.81241 8.33333 7.39379 8.33333 8C8.33333 8.60621 8.09921 9.18759 7.68246 9.61624C7.26571 10.0449 6.70048 10.2857 6.11111 10.2857C5.52174 10.2857 4.95651 10.0449 4.53976 9.61624C4.12302 9.18759 3.88889 8.60621 3.88889 8C3.88889 7.39379 4.12302 6.81241 4.53976 6.38376C4.95651 5.9551 5.52174 5.71429 6.11111 5.71429ZM12.2222 6.28571C12.2222 5.97143 12.4722 5.71429 12.7778 5.71429H17.2222C17.5278 5.71429 17.7778 5.97143 17.7778 6.28571C17.7778 6.6 17.5278 6.85714 17.2222 6.85714H12.7778C12.4722 6.85714 12.2222 6.6 12.2222 6.28571ZM12.2222 8.57143C12.2222 8.25714 12.4722 8 12.7778 8H17.2222C17.5278 8 17.7778 8.25714 17.7778 8.57143C17.7778 8.88571 17.5278 9.14286 17.2222 9.14286H12.7778C12.4722 9.14286 12.2222 8.88571 12.2222 8.57143ZM12.2222 10.8571C12.2222 10.5429 12.4722 10.2857 12.7778 10.2857H17.2222C17.5278 10.2857 17.7778 10.5429 17.7778 10.8571C17.7778 11.1714 17.5278 11.4286 17.2222 11.4286H12.7778C12.4722 11.4286 12.2222 11.1714 12.2222 10.8571Z" fill="white"/>
</svg>
