<svg width="50" height="50" viewBox="0 0 50 50" fill="none" xmlns="http://www.w3.org/2000/svg">
<path d="M25 40C33.265 40 40 33.265 40 25C40 16.735 33.265 10 25 10C16.735 10 10 16.735 10 25C10 33.265 16.735 40 25 40ZM20.815 24.205L26.11 18.91C26.335 18.685 26.62 18.58 26.905 18.58C27.19 18.58 27.475 18.685 27.7 18.91C28.135 19.345 28.135 20.065 27.7 20.5L23.2 25L27.7 29.5C28.135 29.935 28.135 30.655 27.7 31.09C27.265 31.525 26.545 31.525 26.11 31.09L20.815 25.795C20.365 25.36 20.365 24.64 20.815 24.205Z" fill="#646464"/>
</svg>
