<svg width="18" height="22" viewBox="0 0 18 22" fill="none" xmlns="http://www.w3.org/2000/svg">
<path opacity="0.3" d="M12.53 14.92L11.45 15.99C10.15 17.29 7.87 17.3 6.56 15.99L5.49 14.92L4.4 15.99C3.76 16.63 2.9 16.99 2 17V20H16V17C15.1 16.99 14.24 16.63 13.6 15.99L12.53 14.92ZM15 11H3C2.45 11 2 11.45 2 12V15.5C2.51 15.49 2.99 15.29 3.34 14.93L5.48 12.8L7.61 14.93C8.35 15.67 9.64 15.67 10.38 14.93L12.52 12.8L14.65 14.93C15.01 15.29 15.49 15.49 16 15.5V12C16 11.45 15.55 11 15 11Z" fill="black"/>
<path d="M9 6C9.53043 6 10.0391 5.78929 10.4142 5.41421C10.7893 5.03914 11 4.53043 11 4C11 3.62 10.9 3.27 10.71 2.97L9 0L7.29 2.97C7.1 3.27 7 3.62 7 4C7 5.1 7.9 6 9 6ZM15 9H10V7H8V9H3C1.34 9 0 10.34 0 12V21C0 21.55 0.45 22 1 22H17C17.55 22 18 21.55 18 21V12C18 10.34 16.66 9 15 9ZM16 20H2V17C2.9 16.99 3.76 16.63 4.4 15.99L5.49 14.92L6.56 15.99C7.87 17.3 10.15 17.29 11.45 15.99L12.53 14.92L13.6 15.99C14.24 16.63 15.1 16.99 16 17V20ZM16 15.5C15.49 15.49 15.01 15.3 14.65 14.93L12.52 12.8L10.38 14.93C9.64 15.67 8.35 15.67 7.61 14.93L5.48 12.8L3.34 14.93C2.99 15.29 2.51 15.49 2 15.5V12C2 11.45 2.45 11 3 11H15C15.55 11 16 11.45 16 12V15.5Z" fill="#EB583E"/>
</svg>
